<svg xmlns="http://www.w3.org/2000/svg" xmlns:xlink="http://www.w3.org/1999/xlink" contentStyleType="text/css" data-diagram-type="CLASS" height="150px" preserveAspectRatio="none" style="width:334px;height:150px;background:#FFFFFF;" version="1.1" viewBox="0 0 334 150" width="334px" zoomAndPan="magnify"><defs/><g><!--class Artikel--><g class="entity" data-entity="Artikel" data-source-line="1" data-uid="ent0002" id="entity_Artikel"><rect fill="#F1F1F1" height="129.4844" rx="2.5" ry="2.5" style="stroke:#181818;stroke-width:0.5;" width="313.7246" x="7" y="7"/><ellipse cx="136.9512" cy="23" fill="#ADD1B2" rx="11" ry="11" style="stroke:#181818;stroke-width:1;"/><path d="M139.9199,28.6406 Q139.3418,28.9375 138.7012,29.0781 Q138.0605,29.2344 137.3574,29.2344 Q134.8574,29.2344 133.5293,27.5938 Q132.2168,25.9375 132.2168,22.8125 Q132.2168,19.6875 133.5293,18.0313 Q134.8574,16.375 137.3574,16.375 Q138.0605,16.375 138.7012,16.5313 Q139.3574,16.6875 139.9199,16.9844 L139.9199,19.7031 Q139.2949,19.125 138.7012,18.8594 Q138.1074,18.5781 137.4824,18.5781 Q136.1387,18.5781 135.4512,19.6563 Q134.7637,20.7188 134.7637,22.8125 Q134.7637,24.9063 135.4512,25.9844 Q136.1387,27.0469 137.4824,27.0469 Q138.1074,27.0469 138.7012,26.7813 Q139.2949,26.5 139.9199,25.9219 L139.9199,28.6406 Z " fill="#000000"/><text fill="#000000" font-family="sans-serif" font-size="14" lengthAdjust="spacing" textLength="45.3223" x="157.4512" y="27.8467">Artikel</text><line style="stroke:#181818;stroke-width:0.5;" x1="8" x2="319.7246" y1="39" y2="39"/><ellipse cx="18" cy="52.6484" fill="none" rx="3" ry="3" style="stroke:#038048;stroke-width:1;"/><text fill="#000000" font-family="sans-serif" font-size="14" lengthAdjust="spacing" textLength="233.7207" x="27" y="55.9951">artikelnr: int { unique, required }</text><ellipse cx="18" cy="68.9453" fill="none" rx="3" ry="3" style="stroke:#038048;stroke-width:1;"/><text fill="#000000" font-family="sans-serif" font-size="14" lengthAdjust="spacing" textLength="287.7246" x="27" y="72.292">bezeichnung: String { unique, required }</text><ellipse cx="18" cy="85.2422" fill="none" rx="3" ry="3" style="stroke:#038048;stroke-width:1;"/><text fill="#000000" font-family="sans-serif" font-size="14" lengthAdjust="spacing" textLength="169.7295" x="27" y="88.5889">sprache: String = "Java"</text><ellipse cx="18" cy="101.5391" fill="none" rx="3" ry="3" style="stroke:#038048;stroke-width:1;"/><text fill="#000000" font-family="sans-serif" font-size="14" lengthAdjust="spacing" textLength="146.0908" x="27" y="104.8857">beschreibung: String</text><ellipse cx="18" cy="117.8359" fill="none" rx="3" ry="3" style="stroke:#038048;stroke-width:1;"/><text fill="#000000" font-family="sans-serif" font-size="14" lengthAdjust="spacing" textLength="178.3906" x="27" y="121.1826">verkaufspreis: float = 0.0</text><line style="stroke:#181818;stroke-width:0.5;" x1="8" x2="319.7246" y1="128.4844" y2="128.4844"/></g><!--SRC=[VSmn3i8m38NXdLCyTGMXpf4OM5avWHlSncfag9DqeEhTgOeAJ7Xy_lJxI2dXR5bwZfXsM6zFxq7DGJHZGb4P2XzWF1Gnlc7UQCDF5X-qQETmpIRQ_VNfOUG3V-m9rOL6ghwzv8EnD3_1xJUozLJQ9S6I7Dfufxm4wcEzYla5]--></g></svg>