<svg xmlns="http://www.w3.org/2000/svg" xmlns:xlink="http://www.w3.org/1999/xlink" contentStyleType="text/css" data-diagram-type="CLASS" height="537px" preserveAspectRatio="none" style="width:321px;height:537px;background:#FFFFFF;" version="1.1" viewBox="0 0 321 537" width="321px" zoomAndPan="magnify"><defs/><g><!--class Berechtigungsstufe--><g class="entity" data-entity="Berechtigungsstufe" data-source-line="1" data-uid="ent0002" id="entity_Berechtigungsstufe"><rect fill="#F1F1F1" height="96.8906" rx="2.5" ry="2.5" style="stroke:#181818;stroke-width:0.5;" width="168.5479" x="76.5" y="433.38"/><ellipse cx="91.5" cy="449.38" fill="#EB937F" rx="11" ry="11" style="stroke:#181818;stroke-width:1;"/><path d="M95.6094,455.38 L87.8906,455.38 L87.8906,442.9894 L95.6094,442.9894 L95.6094,445.1456 L90.3438,445.1456 L90.3438,447.8175 L95.1094,447.8175 L95.1094,449.9738 L90.3438,449.9738 L90.3438,453.2238 L95.6094,453.2238 L95.6094,455.38 Z " fill="#000000"/><text fill="#000000" font-family="sans-serif" font-size="14" lengthAdjust="spacing" textLength="136.5479" x="105.5" y="454.2267">Berechtigungsstufe</text><line style="stroke:#181818;stroke-width:0.5;" x1="77.5" x2="244.0479" y1="465.38" y2="465.38"/><text fill="#000000" font-family="sans-serif" font-size="14" lengthAdjust="spacing" textLength="89.3594" x="82.5" y="482.3751">international</text><text fill="#000000" font-family="sans-serif" font-size="14" lengthAdjust="spacing" textLength="56.7383" x="82.5" y="498.672">national</text><text fill="#000000" font-family="sans-serif" font-size="14" lengthAdjust="spacing" textLength="41.4941" x="82.5" y="514.9689">intern</text><line style="stroke:#181818;stroke-width:0.5;" x1="77.5" x2="244.0479" y1="522.2706" y2="522.2706"/></g><!--class Telefon--><g class="entity" data-entity="Telefon" data-source-line="7" data-uid="ent0003" id="entity_Telefon"><rect fill="#F1F1F1" height="129.4844" rx="2.5" ry="2.5" style="stroke:#181818;stroke-width:0.5;" width="307.5449" x="7" y="242.9"/><ellipse cx="130.5049" cy="258.9" fill="#ADD1B2" rx="11" ry="11" style="stroke:#181818;stroke-width:1;"/><path d="M133.4736,264.5406 Q132.8955,264.8375 132.2549,264.9781 Q131.6143,265.1344 130.9111,265.1344 Q128.4111,265.1344 127.083,263.4938 Q125.7705,261.8375 125.7705,258.7125 Q125.7705,255.5875 127.083,253.9312 Q128.4111,252.275 130.9111,252.275 Q131.6143,252.275 132.2549,252.4312 Q132.9111,252.5875 133.4736,252.8844 L133.4736,255.6031 Q132.8486,255.025 132.2549,254.7594 Q131.6611,254.4781 131.0361,254.4781 Q129.6924,254.4781 129.0049,255.5562 Q128.3174,256.6188 128.3174,258.7125 Q128.3174,260.8063 129.0049,261.8844 Q129.6924,262.9469 131.0361,262.9469 Q131.6611,262.9469 132.2549,262.6813 Q132.8486,262.4 133.4736,261.8219 L133.4736,264.5406 Z " fill="#000000"/><text fill="#000000" font-family="sans-serif" font-size="14" lengthAdjust="spacing" textLength="52.0352" x="151.0049" y="263.7467">Telefon</text><line style="stroke:#181818;stroke-width:0.5;" x1="8" x2="313.5449" y1="274.9" y2="274.9"/><rect fill="none" height="6" style="stroke:#C82930;stroke-width:1;" width="6" x="15" y="285.5484"/><text fill="#000000" font-family="sans-serif" font-size="14" lengthAdjust="spacing" textLength="134.1689" x="27" y="291.8951">nebenstellenNr: int</text><rect fill="none" height="6" style="stroke:#C82930;stroke-width:1;" width="6" x="15" y="301.8453"/><text fill="#000000" font-family="sans-serif" font-size="14" lengthAdjust="spacing" textLength="281.5449" x="27" y="308.192">berechtigungsstufe: Berechtigungsstufe</text><rect fill="none" height="6" style="stroke:#C82930;stroke-width:1;" width="6" x="15" y="318.1422"/><text fill="#000000" font-family="sans-serif" font-size="14" lengthAdjust="spacing" textLength="102.7988" x="27" y="324.4889">aufstellort: Ort</text><rect fill="none" height="6" style="stroke:#C82930;stroke-width:1;" width="6" x="15" y="334.4391"/><text fill="#000000" font-family="sans-serif" font-size="14" lengthAdjust="spacing" textLength="178.8008" x="27" y="340.7857">verbrauchteEinheiten: int</text><line style="stroke:#181818;stroke-width:0.5;" x1="8" x2="313.5449" y1="348.0875" y2="348.0875"/><ellipse cx="18" cy="361.7359" fill="#84BE84" rx="3" ry="3" style="stroke:#038048;stroke-width:1;"/><text fill="#000000" font-family="sans-serif" font-size="14" lengthAdjust="spacing" textLength="103.5098" x="27" y="365.0826">sperren(): void</text></g><!--class Telefonanlage--><g class="entity" data-entity="Telefonanlage" data-source-line="17" data-uid="ent0005" id="entity_Telefonanlage"><rect fill="#F1F1F1" height="96.8906" rx="2.5" ry="2.5" style="stroke:#181818;stroke-width:0.5;" width="154.4199" x="83.56" y="7"/><ellipse cx="108.8937" cy="23" fill="#ADD1B2" rx="11" ry="11" style="stroke:#181818;stroke-width:1;"/><path d="M111.8625,28.6406 Q111.2844,28.9375 110.6437,29.0781 Q110.0031,29.2344 109.3,29.2344 Q106.8,29.2344 105.4719,27.5938 Q104.1594,25.9375 104.1594,22.8125 Q104.1594,19.6875 105.4719,18.0313 Q106.8,16.375 109.3,16.375 Q110.0031,16.375 110.6437,16.5313 Q111.3,16.6875 111.8625,16.9844 L111.8625,19.7031 Q111.2375,19.125 110.6437,18.8594 Q110.05,18.5781 109.425,18.5781 Q108.0812,18.5781 107.3937,19.6563 Q106.7062,20.7188 106.7062,22.8125 Q106.7062,24.9063 107.3937,25.9844 Q108.0812,27.0469 109.425,27.0469 Q110.05,27.0469 110.6437,26.7813 Q111.2375,26.5 111.8625,25.9219 L111.8625,28.6406 Z " fill="#000000"/><text fill="#000000" font-family="sans-serif" font-size="14" lengthAdjust="spacing" textLength="99.4561" x="125.1901" y="27.8467">Telefonanlage</text><line style="stroke:#181818;stroke-width:0.5;" x1="84.56" x2="236.9799" y1="39" y2="39"/><rect fill="none" height="6" style="stroke:#C82930;stroke-width:1;" width="6" x="91.56" y="49.6484"/><text fill="#000000" font-family="sans-serif" font-size="14" lengthAdjust="spacing" textLength="112.0479" x="103.56" y="55.9951">kennung: String</text><rect fill="none" height="6" style="stroke:#C82930;stroke-width:1;" width="6" x="91.56" y="65.9453"/><text fill="#000000" font-family="sans-serif" font-size="14" lengthAdjust="spacing" textLength="121.8096" x="103.56" y="72.292">amtsnummer: int</text><rect fill="none" height="6" style="stroke:#C82930;stroke-width:1;" width="6" x="91.56" y="82.2422"/><text fill="#000000" font-family="sans-serif" font-size="14" lengthAdjust="spacing" textLength="128.4199" x="103.56" y="88.5889">amtsleitungen: int</text><line style="stroke:#181818;stroke-width:0.5;" x1="84.56" x2="236.9799" y1="95.8906" y2="95.8906"/></g><!--link Telefon to Berechtigungsstufe--><g class="link" data-entity-1="Telefon" data-entity-2="Berechtigungsstufe" data-source-line="15" data-uid="lnk4" id="link_Telefon_Berechtigungsstufe"><path codeLine="15" d="M160.77,372.75 C160.77,392.74 160.77,408.41 160.77,427.07" fill="none" id="Telefon-to-Berechtigungsstufe" style="stroke:#181818;stroke-width:1;"/><polygon fill="#181818" points="160.77,433.07,164.77,424.07,160.77,428.07,156.77,424.07,160.77,433.07" style="stroke:#181818;stroke-width:1;"/></g><!--link Telefonanlage to Telefon--><g class="link" data-entity-1="Telefonanlage" data-entity-2="Telefon" data-source-line="23" data-uid="lnk6" id="link_Telefonanlage_Telefon"><path codeLine="23" d="M160.77,104.39 C160.77,143.7 160.77,199.67 160.77,242.77" fill="none" id="Telefonanlage-Telefon" style="stroke:#181818;stroke-width:1;"/><polygon fill="#000000" points="165.77,178.4664,168.7089,169.4213,162.8311,169.4213,165.77,178.4664" style="stroke:#000000;stroke-width:1;"/><text fill="#000000" font-family="sans-serif" font-size="13" lengthAdjust="spacing" textLength="61.439" x="174.77" y="177.9669">verwaltet</text><text fill="#000000" font-family="sans-serif" font-size="13" lengthAdjust="spacing" textLength="8.271" x="152.2507" y="124.0506">1</text><text fill="#000000" font-family="sans-serif" font-size="13" lengthAdjust="spacing" textLength="41.3486" x="117.5466" y="231.9284">0..901</text></g><!--SRC=[RP2nRW8n44Jx-uhLLI1qY9HnGO54cnJX1tnaxh3mxKNhDHGe_nuViK4akDlrUEQDmN6W3GJxWxe-SX-2nWvqgUXw72k4hRgHhS-xF-ElfFgkghst8T0E7jt8sQ8XHWiE2k_1Rs8cVRvf_-MQ9onPR6DtDHb53RrByJX1Mh4nFS7MyG5EmVUC1OKlY81dSqEdqNrEc0MmQTRFuXvhMFQsnwtC4Sn9QkX3nN5Vs0ODwIC7FDIRjZu19NrXkgTdt_gbJXmDrQlbydMLXW9dfcPdwnLAwny0]--></g></svg>