<svg xmlns="http://www.w3.org/2000/svg" xmlns:xlink="http://www.w3.org/1999/xlink" contentStyleType="text/css" data-diagram-type="CLASS" height="349px" preserveAspectRatio="none" style="width:433px;height:349px;background:#FFFFFF;" version="1.1" viewBox="0 0 433 349" width="433px" zoomAndPan="magnify"><defs/><g><!--class Familienstand--><g class="entity" data-entity="Familienstand" data-source-line="1" data-uid="ent0002" id="entity_Familienstand"><rect fill="#F1F1F1" height="113.1875" rx="2.5" ry="2.5" style="stroke:#181818;stroke-width:0.5;" width="130.5469" x="74.45" y="229.08"/><ellipse cx="89.45" cy="245.08" fill="#EB937F" rx="11" ry="11" style="stroke:#181818;stroke-width:1;"/><path d="M93.5594,251.08 L85.8406,251.08 L85.8406,238.6894 L93.5594,238.6894 L93.5594,240.8456 L88.2938,240.8456 L88.2938,243.5175 L93.0594,243.5175 L93.0594,245.6737 L88.2938,245.6737 L88.2938,248.9237 L93.5594,248.9237 L93.5594,251.08 Z " fill="#000000"/><text fill="#000000" font-family="sans-serif" font-size="14" lengthAdjust="spacing" textLength="98.5469" x="103.45" y="249.9267">Familienstand</text><line style="stroke:#181818;stroke-width:0.5;" x1="75.45" x2="203.9969" y1="261.08" y2="261.08"/><text fill="#000000" font-family="sans-serif" font-size="14" lengthAdjust="spacing" textLength="34.166" x="80.45" y="278.0751">ledig</text><text fill="#000000" font-family="sans-serif" font-size="14" lengthAdjust="spacing" textLength="77.957" x="80.45" y="294.372">verheiratet</text><text fill="#000000" font-family="sans-serif" font-size="14" lengthAdjust="spacing" textLength="69.0361" x="80.45" y="310.6689">verwitwet</text><text fill="#000000" font-family="sans-serif" font-size="14" lengthAdjust="spacing" textLength="80.2402" x="80.45" y="326.9657">geschieden</text><line style="stroke:#181818;stroke-width:0.5;" x1="75.45" x2="203.9969" y1="334.2675" y2="334.2675"/></g><!--class Geschlecht--><g class="entity" data-entity="Geschlecht" data-source-line="8" data-uid="ent0003" id="entity_Geschlecht"><rect fill="#F1F1F1" height="80.5938" rx="2.5" ry="2.5" style="stroke:#181818;stroke-width:0.5;" width="109.8887" x="239.78" y="245.38"/><ellipse cx="254.78" cy="261.38" fill="#EB937F" rx="11" ry="11" style="stroke:#181818;stroke-width:1;"/><path d="M258.8894,267.38 L251.1706,267.38 L251.1706,254.9894 L258.8894,254.9894 L258.8894,257.1456 L253.6238,257.1456 L253.6238,259.8175 L258.3894,259.8175 L258.3894,261.9738 L253.6238,261.9738 L253.6238,265.2238 L258.8894,265.2238 L258.8894,267.38 Z " fill="#000000"/><text fill="#000000" font-family="sans-serif" font-size="14" lengthAdjust="spacing" textLength="77.8887" x="268.78" y="266.2267">Geschlecht</text><line style="stroke:#181818;stroke-width:0.5;" x1="240.78" x2="348.6687" y1="277.38" y2="277.38"/><text fill="#000000" font-family="sans-serif" font-size="14" lengthAdjust="spacing" textLength="64.3125" x="245.78" y="294.3751">m&#228;nnlich</text><text fill="#000000" font-family="sans-serif" font-size="14" lengthAdjust="spacing" textLength="57.1895" x="245.78" y="310.672">weiblich</text><line style="stroke:#181818;stroke-width:0.5;" x1="240.78" x2="348.6687" y1="317.9738" y2="317.9738"/></g><!--class Person--><g class="entity" data-entity="Person" data-source-line="13" data-uid="ent0004" id="entity_Person"><rect fill="#F1F1F1" height="162.0781" rx="2.5" ry="2.5" style="stroke:#181818;stroke-width:0.5;" width="419.4561" x="7" y="7"/><ellipse cx="188.7061" cy="23" fill="#ADD1B2" rx="11" ry="11" style="stroke:#181818;stroke-width:1;"/><path d="M191.6748,28.6406 Q191.0967,28.9375 190.4561,29.0781 Q189.8154,29.2344 189.1123,29.2344 Q186.6123,29.2344 185.2842,27.5938 Q183.9717,25.9375 183.9717,22.8125 Q183.9717,19.6875 185.2842,18.0313 Q186.6123,16.375 189.1123,16.375 Q189.8154,16.375 190.4561,16.5313 Q191.1123,16.6875 191.6748,16.9844 L191.6748,19.7031 Q191.0498,19.125 190.4561,18.8594 Q189.8623,18.5781 189.2373,18.5781 Q187.8936,18.5781 187.2061,19.6563 Q186.5186,20.7188 186.5186,22.8125 Q186.5186,24.9063 187.2061,25.9844 Q187.8936,27.0469 189.2373,27.0469 Q189.8623,27.0469 190.4561,26.7813 Q191.0498,26.5 191.6748,25.9219 L191.6748,28.6406 Z " fill="#000000"/><text fill="#000000" font-family="sans-serif" font-size="14" lengthAdjust="spacing" textLength="47.5439" x="209.2061" y="27.8467">Person</text><line style="stroke:#181818;stroke-width:0.5;" x1="8" x2="425.4561" y1="39" y2="39"/><ellipse cx="18" cy="52.6484" fill="none" rx="3" ry="3" style="stroke:#038048;stroke-width:1;"/><text fill="#000000" font-family="sans-serif" font-size="14" lengthAdjust="spacing" textLength="358.3535" x="27" y="55.9951">nachname: String { 0 &lt; nachname.length &lt;= 30 }</text><ellipse cx="18" cy="68.9453" fill="none" rx="3" ry="3" style="stroke:#038048;stroke-width:1;"/><text fill="#000000" font-family="sans-serif" font-size="14" lengthAdjust="spacing" textLength="344.4219" x="27" y="72.292">vorname:  String { 0 &lt;  vorname.length &lt;= 30 }</text><ellipse cx="18" cy="85.2422" fill="none" rx="3" ry="3" style="stroke:#038048;stroke-width:1;"/><text fill="#000000" font-family="sans-serif" font-size="14" lengthAdjust="spacing" textLength="393.4561" x="27" y="88.5889">geburtsname: String {0 &lt; geburtsname.length &lt;= 30 }</text><ellipse cx="18" cy="101.5391" fill="none" rx="3" ry="3" style="stroke:#038048;stroke-width:1;"/><text fill="#000000" font-family="sans-serif" font-size="14" lengthAdjust="spacing" textLength="358.3877" x="27" y="104.8857">geburtsdatum: Datum { geburtsdatum &lt;= today }</text><ellipse cx="18" cy="117.8359" fill="none" rx="3" ry="3" style="stroke:#038048;stroke-width:1;"/><text fill="#000000" font-family="sans-serif" font-size="14" lengthAdjust="spacing" textLength="340.0947" x="27" y="121.1826">sterbedatum: Datum { sterbedatum &lt;= today }</text><ellipse cx="18" cy="134.1328" fill="none" rx="3" ry="3" style="stroke:#038048;stroke-width:1;"/><text fill="#000000" font-family="sans-serif" font-size="14" lengthAdjust="spacing" textLength="203.1367" x="27" y="137.4795">familienstand: Familienstand</text><ellipse cx="18" cy="150.4297" fill="none" rx="3" ry="3" style="stroke:#038048;stroke-width:1;"/><text fill="#000000" font-family="sans-serif" font-size="14" lengthAdjust="spacing" textLength="162.9824" x="27" y="153.7764">geschlecht: Geschlecht</text><line style="stroke:#181818;stroke-width:0.5;" x1="8" x2="425.4561" y1="161.0781" y2="161.0781"/></g><!--link Person to Familienstand--><g class="link" data-entity-1="Person" data-entity-2="Familienstand" data-source-line="23" data-uid="lnk5" id="link_Person_Familienstand"><path codeLine="23" d="M185.08,169.46 C177.24,189.38 171.2086,204.7073 163.9386,223.1673" fill="none" id="Person-to-Familienstand" style="stroke:#181818;stroke-width:1;"/><polygon fill="#181818" points="161.74,228.75,168.7597,221.8417,163.5722,224.0978,161.3161,218.9103,161.74,228.75" style="stroke:#181818;stroke-width:1;"/></g><!--link Person to Geschlecht--><g class="link" data-entity-1="Person" data-entity-2="Geschlecht" data-source-line="24" data-uid="lnk6" id="link_Person_Geschlecht"><path codeLine="24" d="M248.79,169.46 C259.17,195.49 268.0087,217.6463 276.6687,239.3763" fill="none" id="Person-to-Geschlecht" style="stroke:#181818;stroke-width:1;"/><polygon fill="#181818" points="278.89,244.95,279.2739,235.1086,277.0389,240.3053,271.8423,238.0703,278.89,244.95" style="stroke:#181818;stroke-width:1;"/></g><!--SRC=[TP51QiCm44NtFiNiIqgWEvDqLTfjeIUGfLz988r16iUKaDlq9hrOB3kXicbNC_hptmnyWOT8hohwuC5P51iwDqG1njkfdf0SV582MLwZbt7kBR9s7WRSN9e6PSrRaGAqatb7_Fbc3bwxgH_XkxcTl3gedEaTAVSy6nzOQSSgegKFIPujdMbF1xhBZm5inT7XI4zxkXJYrAS5M1Dqq_yWBBeXILwVAKmr-1ypIeROqaifqwrQBMxfZVfQW2n87JR-IjpOF-les_LFBFVlcRPLlYN6Mu2xtVE6gWQ_n1K0]--></g></svg>